HIERARCHY
ROOT Hips
{
	OFFSET 0.000000 0.000000 0.000000
	CHANNELS 6 Xposition Yposition Zposition Xrotation Yrotation Zrotation
	JOINT LeftUpLeg_virtual
	{
		OFFSET 0.000000 0.000000 0.000000
		CHANNELS 3 Xrotation Yrotation Zrotation
		JOINT LeftUpLeg
		{
			OFFSET 13.026900 -6.336304 -1.092800
			CHANNELS 3 Xrotation Yrotation Zrotation
			JOINT LeftLeg
			{
				OFFSET 0.524474 -46.096886 9.782700
				CHANNELS 3 Xrotation Yrotation Zrotation
				JOINT LeftFoot
				{
					OFFSET -0.524474 -53.427422 -12.948200
					CHANNELS 3 Xrotation Yrotation Zrotation
					JOINT LeftToeBase
					{
						OFFSET 0.192200 -14.009700 16.364100
						CHANNELS 3 Xrotation Yrotation Zrotation
						JOINT LeftToe_End
						{
							OFFSET -1.784700 -0.561700 9.474800
							CHANNELS 3 Xrotation Yrotation Zrotation
							End Site
							{
								OFFSET 0 0 0
							}
						}
					}
				}
			}
		}
	}
	JOINT RightUpLeg_virtual
	{
		OFFSET 0.000000 0.000000 0.000000
		CHANNELS 3 Xrotation Yrotation Zrotation
		JOINT RightUpLeg
		{
			OFFSET -12.883000 -6.336304 -1.092800
			CHANNELS 3 Xrotation Yrotation Zrotation
			JOINT RightLeg
			{
				OFFSET -0.524587 -46.096825 9.782800
				CHANNELS 3 Xrotation Yrotation Zrotation
				JOINT RightFoot
				{
					OFFSET 0.524587 -53.427383 -12.948300
					CHANNELS 3 Xrotation Yrotation Zrotation
					JOINT RightToeBase
					{
						OFFSET -0.192200 -14.009700 16.364100
						CHANNELS 3 Xrotation Yrotation Zrotation
						JOINT RightToe_End
						{
							OFFSET 1.784700 -0.561700 9.474800
							CHANNELS 3 Xrotation Yrotation Zrotation
							End Site
							{
								OFFSET 0 0 0
							}
						}
					}
				}
			}
		}
	}
	JOINT Spine_virtual
	{
		OFFSET 0.000000 0.000000 0.000000
		CHANNELS 3 Xrotation Yrotation Zrotation
		JOINT Spine
		{
			OFFSET 0.072000 7.257294 -0.789700
			CHANNELS 3 Xrotation Yrotation Zrotation
			JOINT Spine1
			{
				OFFSET 0.000000 12.508769 -0.658067
				CHANNELS 3 Xrotation Yrotation Zrotation
				JOINT Spine1_split
				{
					OFFSET 0.000000 12.508769 -0.658067
					CHANNELS 3 Xrotation Yrotation Zrotation
					JOINT Spine2
					{
						OFFSET 0.000000 12.508769 -0.658067
						CHANNELS 3 Xrotation Yrotation Zrotation
						JOINT Neck_virtual
						{
							OFFSET 0.000000 0.000000 0.000000
							CHANNELS 3 Xrotation Yrotation Zrotation
							JOINT Neck
							{
								OFFSET 0.000000 14.033295 7.520400
								CHANNELS 3 Xrotation Yrotation Zrotation
								JOINT Head
								{
									OFFSET 0.000000 8.198502 5.703100
									CHANNELS 3 Xrotation Yrotation Zrotation
									JOINT HeadTop_End
									{
										OFFSET 0.000000 17.760803 13.332701
										CHANNELS 3 Xrotation Yrotation Zrotation
										End Site
										{
											OFFSET 0 0 0
										}
									}
								}
							}
						}
						JOINT LeftShoulder_virtual
						{
							OFFSET 0.000000 0.000000 0.000000
							CHANNELS 3 Xrotation Yrotation Zrotation
							JOINT LeftShoulder
							{
								OFFSET 6.292450 5.785301 -0.669000
								CHANNELS 3 Xrotation Yrotation Zrotation
								JOINT LeftShoulder_split
								{
									OFFSET 6.292450 5.785301 -0.669000
									CHANNELS 3 Xrotation Yrotation Zrotation
									JOINT LeftArm
									{
										OFFSET 13.907140 -6.093903 1.965100
										CHANNELS 3 Xrotation Yrotation Zrotation
										JOINT LeftForeArm
										{
											OFFSET 34.140198 0.000000 0.000000
											CHANNELS 3 Xrotation Yrotation Zrotation
											JOINT LeftHand
											{
												OFFSET 40.960209 0.000000 0.000000
												CHANNELS 3 Xrotation Yrotation Zrotation
												End Site
												{
													OFFSET 0 0 0
												}
											}
										}
									}
								}
							}
						}
						JOINT RightShoulder_virtual
						{
							OFFSET 0.000000 0.000000 0.000000
							CHANNELS 3 Xrotation Yrotation Zrotation
							JOINT RightShoulder
							{
								OFFSET -6.292450 5.785301 -0.669000
								CHANNELS 3 Xrotation Yrotation Zrotation
								JOINT RightShoulder_split
								{
									OFFSET -6.292450 5.785301 -0.669000
									CHANNELS 3 Xrotation Yrotation Zrotation
									JOINT RightArm
									{
										OFFSET -13.907140 -6.093903 1.965100
										CHANNELS 3 Xrotation Yrotation Zrotation
										JOINT RightForeArm
										{
											OFFSET -34.140198 0.000000 0.000000
											CHANNELS 3 Xrotation Yrotation Zrotation
											JOINT RightHand
											{
												OFFSET -40.960209 0.000000 0.000000
												CHANNELS 3 Xrotation Yrotation Zrotation
												End Site
												{
													OFFSET 0 0 0
												}
											}
										}
									}
								}
							}
						}
					}
				}
			}
		}
	}
}
MOTION
Frames: 4
Frame Time: 0.03333333
230.520630 21.872780 -38.122784 0.000000 0.000000 0.000000 -123.645767 -16.758656 63.501478 -107.236914 14.371874 11.831142 111.846868 -9.682655 -0.808773 23.586021 10.262622 11.855743 8.465453 -1.666318 3.086892 0.000000 0.000000 0.000000 -124.822008 -20.600991 59.928414 -80.817810 -0.073655 1.651339 63.242818 1.780554 4.794053 3.587259 3.084212 9.384970 -16.627921 -1.027232 3.298523 0.000000 0.000000 0.000000 -133.145836 -20.633166 70.702894 13.150816 8.870945 5.970885 23.037134 5.396191 1.394313 -1.207778 0.509224 2.251736 0.000000 0.000000 0.000000 20.549922 5.220392 1.284450 53.623723 -4.976498 -7.475238 -25.417202 -16.060756 12.093630 0.000000 0.000000 0.000000 21.569054 6.484239 1.809365 1.977911 0.446270 3.645082 4.925161 -7.102279 0.411787 -35.880773 -14.344272 -4.855082 174.780374 -44.415819 177.439203 0.000000 0.000000 0.000000 18.212102 4.987468 2.968656 -1.676496 -4.757098 -3.739359 9.151796 -5.216184 5.519362 -75.477941 0.295238 44.325462 -165.052177 59.652926 160.554730 0.000000 0.000000 0.000000 
233.798508 18.351387 -39.962543 0.000000 0.000000 0.000000 -125.720041 -4.586729 72.823955 -104.490235 22.262815 16.170422 107.510217 -8.826869 -2.647614 18.783806 13.806118 14.188502 7.969507 -1.845773 2.726726 0.000000 0.000000 0.000000 -124.733365 -8.552005 66.565541 -82.274533 -0.815049 -2.493291 69.163595 1.407722 6.605306 -0.477236 4.469442 11.885405 -15.031711 -0.364292 2.235191 0.000000 0.000000 0.000000 -134.174545 -9.731829 80.454437 14.185238 7.171374 5.133290 22.589293 5.857739 2.068857 -0.194102 -0.636302 2.506859 0.000000 0.000000 0.000000 19.689999 5.699961 2.006176 51.940044 -4.726748 -8.893686 -21.816492 -13.385719 13.071517 0.000000 0.000000 0.000000 21.658221 6.439922 2.392448 1.294295 1.885669 1.862345 5.016949 -6.766804 -0.305966 -23.393418 -17.730056 -10.262568 172.788309 -49.032214 176.069805 0.000000 0.000000 0.000000 17.824461 5.370981 4.059169 -2.614670 -4.854514 -5.988890 8.190689 -1.412367 4.152425 -59.899892 -6.290498 43.710315 -157.399811 71.537352 153.730332 0.000000 0.000000 0.000000 
237.699570 16.321640 -41.981510 0.000000 0.000000 0.000000 -130.355158 6.017976 84.401474 -101.509302 31.543753 21.149971 102.912707 -6.564483 -4.164259 14.522345 17.432605 15.497820 6.637071 -1.761927 2.016210 0.000000 0.000000 0.000000 -126.895680 2.691167 74.711116 -81.569794 -1.505956 -6.013765 70.609751 0.537373 8.202909 -3.307488 5.058489 14.461039 -13.309852 0.233169 1.035273 0.000000 0.000000 0.000000 -137.378177 0.285114 91.446541 14.975405 5.549492 3.856778 21.866910 6.260680 2.462102 0.457632 -1.639764 2.409013 0.000000 0.000000 0.000000 19.455905 6.113469 2.527643 49.549276 -3.918328 -9.167455 -19.811437 -11.960205 14.024870 0.000000 0.000000 0.000000 21.973922 6.428161 2.728897 0.767200 2.062015 -1.194945 4.981302 -5.332194 0.776057 -14.331263 -19.361592 -14.085596 170.804098 -56.524538 173.785831 0.000000 0.000000 0.000000 17.649492 5.744477 4.944756 -3.202843 -2.723891 -6.809165 7.400069 2.937834 3.028888 -45.911893 -7.203723 43.509548 -69.200471 83.751636 66.747136 0.000000 0.000000 0.000000 
242.732941 15.712822 -43.060139 0.000000 0.000000 0.000000 -137.322524 14.812262 98.104855 -99.882801 40.029556 25.531165 99.966232 -3.241744 -5.010648 11.127299 20.674083 16.673501 4.853442 -1.467749 1.057421 0.000000 0.000000 0.000000 -131.753024 12.165592 84.741863 -77.741691 -1.265296 -8.121039 67.982929 -1.174871 9.463913 -4.597472 4.792537 16.214927 -11.683765 0.616111 0.135253 0.000000 0.000000 0.000000 -142.921517 8.991924 104.115429 15.355770 4.441917 2.306014 20.940938 6.676955 2.507653 0.235594 -1.811137 1.835152 0.000000 0.000000 0.000000 19.821019 6.549567 2.719247 46.320683 -2.360214 -7.870277 -20.240251 -11.828096 15.167736 0.000000 0.000000 0.000000 22.311631 6.610124 2.710404 0.360597 1.219078 -4.678921 4.109291 -4.277234 2.948587 -7.396291 -19.044519 -16.439007 168.061613 -65.821741 169.975131 0.000000 0.000000 0.000000 17.509721 6.077936 5.423986 -3.523963 0.382291 -6.434822 7.584917 6.852442 1.615823 -35.751273 -4.949305 41.946326 -8.947690 65.558826 7.964930 0.000000 0.000000 0.000000 
